<svg viewBox="-0.5 -0.5 16 16" fill="none" xmlns="http://www.w3.org/2000/svg" id="Ban--Streamline-Unicons.svg" height="16" width="16"><desc>Ban Streamline Icon: https://streamlinehq.com</desc><path d="M7.5 0.15c-1.4536875 0 -2.8747499999999997 0.4310625 -4.0834375000000005 1.2386875 -1.2086875 0.807625 -2.15075 1.9555624999999999 -2.7070624999999997 3.2985625C0.1531875 6.0303125 0.007625000000000001 7.508125 0.29125 8.933875s0.9836250000000001 2.735375 2.0115 3.763375c1.0279375 1.027875 2.3375624999999998 1.7279375 3.7633125 2.0115625 1.42575 0.2835625 2.9036250000000003 0.138 4.246625 -0.4183125 1.3430624999999998 -0.5563125 2.4909999999999997 -1.4983750000000002 3.298625 -2.7070624999999997C14.4189375 10.374749999999999 14.850000000000001 8.953687500000001 14.850000000000001 7.5c0 -0.9651875 -0.19012500000000002 -1.9209999999999998 -0.5595 -2.81275 -0.3693125 -0.89175 -0.9107500000000001 -1.702 -1.5932499999999998 -2.3845 -0.6825000000000001 -0.6825000000000001 -1.49275 -1.223875 -2.3845625 -1.5932499999999998C9.421000000000001 0.340125 8.465187499999999 0.15 7.5 0.15Zm0 13.23c-1.5595 0 -3.0550625 -0.6195625 -4.1578125 -1.7221875C2.2395 10.555062500000002 1.62 9.059437500000001 1.62 7.5c-0.001625 -1.305875 0.435875 -2.5743125 1.2421250000000001 -3.6015l8.239374999999999 8.2393125c-1.0271875 0.8063125 -2.2956250000000002 1.2438125 -3.6015 1.2421875Zm4.6378125 -2.2785L3.8985 2.862125c1.0271875 -0.80625 2.2956250000000002 -1.24375 3.6015 -1.2421250000000001 1.5594375 0 3.0551250000000003 0.6194999999999999 4.1578125 1.7221875C12.760562499999999 4.4449375 13.38 5.9405 13.38 7.5c0.001625 1.305875 -0.435875 2.5743125 -1.2421875 3.6015Z" fill="#000000" stroke-width="1"></path></svg>